<svg width="27" height="27" viewBox="0 0 27 27" fill="none" xmlns="http://www.w3.org/2000/svg">
<g filter="url(#filter0_d_4_11)">
<circle cx="13.5" cy="9.5" r="9.5" fill="#FF0000"/>
</g>
<path d="M18.77 6.7493C18.6432 6.25729 18.271 5.87065 17.7975 5.73895C16.94 5.5 13.5 5.5 13.5 5.5C13.5 5.5 10.06 5.5 9.2025 5.73895C8.72893 5.87065 8.35677 6.25729 8.23 6.7493C8 7.64017 8 9.5 8 9.5C8 9.5 8 11.3598 8.23 12.2507C8.35677 12.7427 8.72893 13.1294 9.2025 13.261C10.06 13.5 13.5 13.5 13.5 13.5C13.5 13.5 16.94 13.5 17.7975 13.261C18.271 13.1294 18.6432 12.7427 18.77 12.2507C19 11.3598 19 9.5 19 9.5C19 9.5 18.9991 7.64017 18.77 6.7493Z" fill="white"/>
<path d="M12.3989 11.2142L15.2567 9.50016L12.3989 7.78613V11.2142Z" fill="#FF0000"/>
<defs>
<filter id="filter0_d_4_11" x="0" y="0" width="27" height="27" filterUnits="userSpaceOnUse" color-interpolation-filters="sRGB">
<feFlood flood-opacity="0" result="BackgroundImageFix"/>
<feColorMatrix in="SourceAlpha" type="matrix" values="0 0 0 0 0 0 0 0 0 0 0 0 0 0 0 0 0 0 127 0" result="hardAlpha"/>
<feOffset dy="4"/>
<feGaussianBlur stdDeviation="2"/>
<feComposite in2="hardAlpha" operator="out"/>
<feColorMatrix type="matrix" values="0 0 0 0 0 0 0 0 0 0 0 0 0 0 0 0 0 0 0.15 0"/>
<feBlend mode="normal" in2="BackgroundImageFix" result="effect1_dropShadow_4_11"/>
<feBlend mode="normal" in="SourceGraphic" in2="effect1_dropShadow_4_11" result="shape"/>
</filter>
</defs>
</svg>
